<svg xmlns="http://www.w3.org/2000/svg" viewBox="0 0 512 512">
  <defs>
    <linearGradient id="bg" x1="0" y1="0" x2="0" y2="1">
      <stop offset="0" stop-color="#efe2cb"/>
      <stop offset="1" stop-color="#dcc2a0"/>
    </linearGradient>
  </defs>
  <rect width="512" height="512" rx="112" fill="url(#bg)"/>
  <rect x="108" y="84" width="296" height="344" rx="34" fill="#fff8ee" stroke="#9b7b57" stroke-width="14"/>
  <rect x="138" y="120" width="18" height="270" rx="9" fill="#c8a27c"/>
  <rect x="184" y="162" width="168" height="16" rx="8" fill="#cdb08d"/>
  <rect x="184" y="206" width="140" height="16" rx="8" fill="#d9c1a3"/>
  <rect x="184" y="250" width="154" height="16" rx="8" fill="#d9c1a3"/>
  <rect x="184" y="294" width="118" height="16" rx="8" fill="#d9c1a3"/>
  <path d="M330 340c-26 0-44 19-44 44 0-25-18-44-44-44 26 0 44-18 44-44 0 26 18 44 44 44z" fill="#9b7b57"/>
</svg>